HIERARCHY
ROOT hip
{
  OFFSET 0.00112043 5.09927 -9.65472
  CHANNELS 6 Xposition Yposition Zposition Zrotation Xrotation Yrotation
  JOINT abdomen
  {
    OFFSET 0 -1.186 -1.5018
    CHANNELS 3 Zrotation Xrotation Yrotation
    JOINT abdomen2
    {
      OFFSET 0 9.964 0.2134
      CHANNELS 3 Zrotation Xrotation Yrotation
      JOINT chest
      {
        OFFSET 0 13.134 -3.2573
        CHANNELS 3 Zrotation Xrotation Yrotation
        JOINT neck
        {
          OFFSET 0 20.686 -1.6905
          CHANNELS 3 Zrotation Xrotation Yrotation
          JOINT head
          {
            OFFSET 0 7.238 -0.1237
            CHANNELS 3 Zrotation Xrotation Yrotation
            End Site
            {
              OFFSET 0 0 0
            }
          }
        }
        JOINT lCollar
        {
          OFFSET 1.7069 20.075 5.0056
          CHANNELS 3 Zrotation Xrotation Yrotation
          JOINT lShldr
          {
            OFFSET 13.6458 -0.047 -4.849
            CHANNELS 3 Zrotation Xrotation Yrotation
            JOINT lForeArm
            {
              OFFSET 28.3255 -0.9759 2.2888
              CHANNELS 3 Zrotation Xrotation Yrotation
              JOINT lHand
              {
                OFFSET 22.1583 -0.53 10.8316
                CHANNELS 3 Zrotation Xrotation Yrotation
                JOINT lThumb1
                {
                  OFFSET 0.786 0.112 2.5817
                  CHANNELS 3 Zrotation Xrotation Yrotation
                  JOINT lThumb2
                  {
                    OFFSET 0.3601 -0.878 4.2331
                    CHANNELS 3 Zrotation Xrotation Yrotation
                    JOINT lThumb2_End
                    {
                      OFFSET 1.8127 -1.216 2.2227
                      CHANNELS 3 Zrotation Xrotation Yrotation
                      End Site
                      {
                        OFFSET 0.0181 -0.0122 0.0222
                      }
                    }
                  }
                }
                JOINT lCarpal1
                {
                  OFFSET 0.9571 1.114 1.7695
                  CHANNELS 3 Zrotation Xrotation Yrotation
                  JOINT lIndex1
                  {
                    OFFSET 4.1246 0.487 4.1451
                    CHANNELS 3 Zrotation Xrotation Yrotation
                    JOINT lIndex2
                    {
                      OFFSET 3.4052 -1.454 2.7682
                      CHANNELS 3 Zrotation Xrotation Yrotation
                      JOINT lIndex2_End
                      {
                        OFFSET 1.4531 -1.795 1.2713
                        CHANNELS 3 Zrotation Xrotation Yrotation
                        End Site
                        {
                          OFFSET 0.0145 -0.0179 0.0127
                        }
                      }
                    }
                  }
                  JOINT lMid1
                  {
                    OFFSET 5.6954 0.21 2.1184
                    CHANNELS 3 Zrotation Xrotation Yrotation
                    JOINT lMid2
                    {
                      OFFSET 3.9766 -1.54 2.3863
                      CHANNELS 3 Zrotation Xrotation Yrotation
                      JOINT lMid2_End
                      {
                        OFFSET 1.4042 -1.926 1.125
                        CHANNELS 3 Zrotation Xrotation Yrotation
                        End Site
                        {
                          OFFSET 0.014 -0.0193 0.0113
                        }
                      }
                    }
                  }
                }
                JOINT lCarpal2
                {
                  OFFSET 2.0956 0.66 -0.3894
                  CHANNELS 3 Zrotation Xrotation Yrotation
                  JOINT lRing1
                  {
                    OFFSET 5.0395 -0.09 2.4971
                    CHANNELS 3 Zrotation Xrotation Yrotation
                    JOINT lRing2
                    {
                      OFFSET 3.7921 -1.552 1.4806
                      CHANNELS 3 Zrotation Xrotation Yrotation
                      JOINT lRing2_End
                      {
                        OFFSET 1.4655 -1.808 0.9609
                        CHANNELS 3 Zrotation Xrotation Yrotation
                        End Site
                        {
                          OFFSET 0.0147 -0.0181 0.0096
                        }
                      }
                    }
                  }
                  JOINT lPinky1
                  {
                    OFFSET 4.9141 -1.269 0.3591
                    CHANNELS 3 Zrotation Xrotation Yrotation
                    JOINT lPinky2
                    {
                      OFFSET 3.1477 -1.685 0.8462
                      CHANNELS 3 Zrotation Xrotation Yrotation
                      JOINT lPinky2_End
                      {
                        OFFSET 0.8055 -1.585 0.7955
                        CHANNELS 3 Zrotation Xrotation Yrotation
                        End Site
                        {
                          OFFSET 0.0081 -0.0158 0.008
                        }
                      }
                    }
                  }
                }
              }
            }
          }
        }
        JOINT rCollar
        {
          OFFSET -1.7069 20.075 5.0056
          CHANNELS 3 Zrotation Xrotation Yrotation
          JOINT rShldr
          {
            OFFSET -13.6458 -0.047 -4.849
            CHANNELS 3 Zrotation Xrotation Yrotation
            JOINT rForeArm
            {
              OFFSET -28.3255 -0.9759 2.2888
              CHANNELS 3 Zrotation Xrotation Yrotation
              JOINT rHand
              {
                OFFSET -22.1583 -0.53 10.8316
                CHANNELS 3 Zrotation Xrotation Yrotation
                JOINT rThumb1
                {
                  OFFSET -0.786 0.112 2.5817
                  CHANNELS 3 Zrotation Xrotation Yrotation
                  JOINT rThumb2
                  {
                    OFFSET -0.3601 -0.878 4.2331
                    CHANNELS 3 Zrotation Xrotation Yrotation
                    JOINT rThumb2_End
                    {
                      OFFSET -1.8127 -1.216 2.2227
                      CHANNELS 3 Zrotation Xrotation Yrotation
                      End Site
                      {
                        OFFSET -0.0181 -0.0122 0.0222
                      }
                    }
                  }
                }
                JOINT rCarpal1
                {
                  OFFSET -0.9571 1.114 1.7695
                  CHANNELS 3 Zrotation Xrotation Yrotation
                  JOINT rIndex1
                  {
                    OFFSET -4.1246 0.487 4.1451
                    CHANNELS 3 Zrotation Xrotation Yrotation
                    JOINT rIndex2
                    {
                      OFFSET -3.4052 -1.454 2.7682
                      CHANNELS 3 Zrotation Xrotation Yrotation
                      JOINT rIndex2_End
                      {
                        OFFSET -1.4531 -1.795 1.2713
                        CHANNELS 3 Zrotation Xrotation Yrotation
                        End Site
                        {
                          OFFSET -0.0145 -0.018 0.0127
                        }
                      }
                    }
                  }
                  JOINT rMid1
                  {
                    OFFSET -5.6954 0.21 2.1184
                    CHANNELS 3 Zrotation Xrotation Yrotation
                    JOINT rMid2
                    {
                      OFFSET -3.9766 -1.54 2.3863
                      CHANNELS 3 Zrotation Xrotation Yrotation
                      JOINT rMid2_End
                      {
                        OFFSET -1.4042 -1.926 1.125
                        CHANNELS 3 Zrotation Xrotation Yrotation
                        End Site
                        {
                          OFFSET -0.014 -0.0193 0.0113
                        }
                      }
                    }
                  }
                }
                JOINT rCarpal2
                {
                  OFFSET -2.0956 0.66 -0.3894
                  CHANNELS 3 Zrotation Xrotation Yrotation
                  JOINT rRing1
                  {
                    OFFSET -5.0395 -0.09 2.4971
                    CHANNELS 3 Zrotation Xrotation Yrotation
                    JOINT rRing2
                    {
                      OFFSET -3.7921 -1.552 1.4806
                      CHANNELS 3 Zrotation Xrotation Yrotation
                      JOINT rRing2_End
                      {
                        OFFSET -1.4655 -1.808 0.9609
                        CHANNELS 3 Zrotation Xrotation Yrotation
                        End Site
                        {
                          OFFSET -0.0147 -0.0181 0.0096
                        }
                      }
                    }
                  }
                  JOINT rPinky1
                  {
                    OFFSET -4.9141 -1.269 0.3592
                    CHANNELS 3 Zrotation Xrotation Yrotation
                    JOINT rPinky2
                    {
                      OFFSET -3.1477 -1.685 0.8462
                      CHANNELS 3 Zrotation Xrotation Yrotation
                      JOINT rPinky2_End
                      {
                        OFFSET -0.8055 -1.585 0.7955
                        CHANNELS 3 Zrotation Xrotation Yrotation
                        End Site
                        {
                          OFFSET -0.0081 -0.0158 0.008
                        }
                      }
                    }
                  }
                }
              }
            }
          }
        }
      }
    }
  }
  JOINT lThigh
  {
    OFFSET 8.367 -8.2066 0.5982
    CHANNELS 3 Zrotation Xrotation Yrotation
    JOINT lShin
    {
      OFFSET 2.1923 -43.463 -0.4932
      CHANNELS 3 Zrotation Xrotation Yrotation
      JOINT lFoot
      {
        OFFSET 0.7333 -45.8593 -2.6451
        CHANNELS 3 Zrotation Xrotation Yrotation
        End Site
        {
          OFFSET 2.6618 -4.2699 12.3931
        }
      }
    }
  }
  JOINT rThigh
  {
    OFFSET -8.367 -8.2066 0.5982
    CHANNELS 3 Zrotation Xrotation Yrotation
    JOINT rShin
    {
      OFFSET -2.1923 -43.463 -0.4931
      CHANNELS 3 Zrotation Xrotation Yrotation
      JOINT rFoot
      {
        OFFSET -0.7333 -45.8593 -2.6451
        CHANNELS 3 Zrotation Xrotation Yrotation
        End Site
        {
          OFFSET -2.6618 -4.2699 12.3931
        }
      }
    }
  }
}
MOTION
Frames:	4
Frame Time:	0.0333333
0 91.7903 2.51682 0 0 -0 0 0 -0 0 0 -0 0 0 -0 0 0 -0 0 0 -0 0 0 -0 1.66051 0.0835086 5.75766 -0.0175111 0.895433 15.7816 7.95139e-016 -1.98785e-016 -0 5.46658e-016 -3.97569e-016 -0 5.96354e-016 0 -0 3.97569e-016 1.98785e-016 9.54166e-015 1.49089e-016 -3.97569e-016 -0 6.4605e-016 0 3.18055e-015 5.96354e-016 0 3.18055e-015 8.94531e-016 -1.98785e-016 6.36111e-015 6.4605e-016 0 3.18055e-015 5.96354e-016 0 3.18055e-015 8.94531e-016 -1.98785e-016 6.36111e-015 1.49089e-016 -3.97569e-016 -0 6.4605e-016 0 3.18055e-015 5.96354e-016 0 3.18055e-015 8.94531e-016 -1.98785e-016 6.36111e-015 6.4605e-016 0 3.18055e-015 5.96354e-016 0 3.18055e-015 8.94531e-016 -1.98785e-016 6.36111e-015 0 0 -0 -1.4496 0.0636048 -5.0245 -1.74811 1.20616 -16.8394 -1.19271e-015 1.98785e-016 -3.18055e-015 -3.97569e-016 1.98785e-016 -3.18055e-015 -2.98177e-016 1.98785e-016 -3.18055e-015 -2.98177e-016 3.97569e-016 -0 4.96962e-016 0 -6.36111e-015 -9.93923e-017 3.97569e-016 -0 -8.94531e-016 5.96354e-016 -0 -3.97569e-016 3.97569e-016 -0 -9.93923e-017 3.97569e-016 -0 -8.94531e-016 5.96354e-016 -0 -3.97569e-016 3.97569e-016 -0 4.96962e-016 0 -6.36111e-015 -9.93923e-017 3.97569e-016 -0 -8.94531e-016 5.96354e-016 -0 -3.97569e-016 3.97569e-016 -0 -9.93923e-017 3.97569e-016 -0 -8.94531e-016 5.96354e-016 -0 -3.97569e-016 3.97569e-016 -0 -4.66111 -0.998717 0.12318 0.00986924 1.54847 0.176523 4.65186 -0.572283 -0.254274 4.66111 -0.998765 -0.123176 -0.00986867 1.54869 -0.176537 -4.65186 -0.572453 0.25427 
-0.000153932 -1.98676 -8.92368 -0 -88.0745 -0 -0.0200938 -3.32597 -0.164461 -0.0498957 -6.65184 -0.330931 -0.0498956 -6.65185 -0.330931 2.53386e-006 19.3315 -2.31405e-006 -0.00119343 9.6833 -0.0362633 -17.0373 15.3826 4.26861 -73.3443 -8.45619 -50.8985 -14.073 39.2239 17.1951 -49.7357 -7.91939 15.4782 -3.6173e-007 -3.25521e-006 -8.53137e-006 8.51635e-008 -1.13008e-006 -2.22422e-006 7.31665e-008 1.83264e-007 -8.38043e-006 9.54166e-015 0 -1.59028e-015 -3.6173e-007 -3.25521e-006 -8.53137e-006 8.51635e-008 -1.13008e-006 -2.22422e-006 7.31665e-008 1.83264e-007 -8.38043e-006 -3.6173e-007 -3.25521e-006 -8.53137e-006 8.51635e-008 -1.13008e-006 -2.22422e-006 7.31665e-008 1.83264e-007 -8.38043e-006 9.54166e-015 0 -1.59028e-015 -3.6173e-007 -3.25521e-006 -8.53137e-006 8.51635e-008 -1.13008e-006 -2.22422e-006 7.31665e-008 1.83264e-007 -8.38043e-006 -3.6173e-007 -3.25521e-006 -8.53137e-006 8.51635e-008 -1.13008e-006 -2.22422e-006 7.31665e-008 1.83264e-007 -8.38043e-006 17.0302 15.3795 -4.27697 73.4753 -8.29318 51.648 12.4253 39.3786 -17.1949 49.7505 -7.27052 -15.9311 -1.14606e-006 -3.76958e-006 7.12238e-006 -1.40815e-006 2.04021e-006 -5.77975e-006 1.40815e-006 -2.04021e-006 5.77975e-006 6.36111e-015 6.36111e-015 1.59028e-015 -1.14606e-006 -3.76958e-006 7.12238e-006 -1.40815e-006 2.04021e-006 -5.77975e-006 1.40815e-006 -2.04021e-006 5.77975e-006 -1.14606e-006 -3.76958e-006 7.12238e-006 -1.40815e-006 2.04021e-006 -5.77975e-006 1.40815e-006 -2.04021e-006 5.77975e-006 6.36111e-015 6.36111e-015 1.59028e-015 -1.14606e-006 -3.76958e-006 7.12238e-006 -1.40815e-006 2.04021e-006 -5.77975e-006 1.40815e-006 -2.04021e-006 5.77975e-006 -1.14606e-006 -3.76958e-006 7.12238e-006 -1.40815e-006 2.04021e-006 -5.77975e-006 1.40815e-006 -2.04021e-006 5.77975e-006 21.1532 -17.8698 55.6682 2.32647 48.1246 0.703868 5.88024 22.3978 -1.72978 -21.1298 -17.8929 -55.604 -2.32908 48.1238 -0.707601 -5.82819 22.4047 1.6528 
-0.00200437 5.26666 -8.60702 -0 -82.0004 -0 -0.0176029 -3.27013 -0.153033 -0.044079 -6.54018 -0.307828 -0.0440793 -6.54019 -0.307828 6.50991e-006 17.9984 -2.84886e-006 -0.0101511 9.11547 -0.232726 -15.5206 15.2509 4.72252 -67.9768 -8.1531 -47.0992 -13.2595 36.5862 17.0639 -46.7303 -7.08255 14.0079 -1.79221e-006 -5.69301e-007 2.19787e-006 1.31544e-006 6.59036e-006 3.78018e-007 -1.18653e-006 9.22125e-007 7.59138e-007 6.36111e-015 -5.76476e-015 -1.19271e-015 -1.79221e-006 -5.69301e-007 2.19787e-006 1.31544e-006 6.59036e-006 3.78018e-007 -1.18653e-006 9.22125e-007 7.59138e-007 -1.79221e-006 -5.69301e-007 2.19787e-006 1.31544e-006 6.59036e-006 3.78018e-007 -1.18653e-006 9.22125e-007 7.59138e-007 6.36111e-015 -5.76476e-015 -1.19271e-015 -1.79221e-006 -5.69301e-007 2.19787e-006 1.31544e-006 6.59036e-006 3.78018e-007 -1.18653e-006 9.22125e-007 7.59138e-007 -1.79221e-006 -5.69301e-007 2.19787e-006 1.31544e-006 6.59036e-006 3.78018e-007 -1.18653e-006 9.22125e-007 7.59138e-007 15.4929 15.2333 -4.75774 68.1247 -7.98886 47.8512 11.6386 36.7466 -17.1477 46.7422 -6.48091 -14.4197 1.09323e-006 -1.03969e-006 8.57999e-007 2.34639e-006 1.85428e-006 -1.52188e-006 3.18055e-015 -3.37934e-015 1.59028e-015 6.36111e-015 -3.8763e-015 1.59028e-015 1.09323e-006 -1.03969e-006 8.57999e-007 2.34639e-006 1.85428e-006 -1.52188e-006 3.18055e-015 3.03147e-015 -3.08116e-015 1.09323e-006 -1.03969e-006 8.57999e-007 2.34639e-006 1.85428e-006 -1.52188e-006 3.18055e-015 3.03147e-015 -3.08116e-015 6.36111e-015 -3.8763e-015 1.59028e-015 1.09323e-006 -1.03969e-006 8.57999e-007 2.34639e-006 1.85428e-006 -1.52188e-006 3.18055e-015 3.03147e-015 -3.08116e-015 1.09323e-006 -1.03969e-006 8.57999e-007 2.34639e-006 1.85428e-006 -1.52188e-006 3.18055e-015 3.03147e-015 -3.08116e-015 18.0026 -17.6253 50.9151 2.0031 44.7141 0.799005 5.26489 20.8595 -1.06074 -17.8288 -17.773 -50.4725 -2.00631 44.7218 -0.805675 -4.92177 20.8938 0.58693 
-0.00364219 5.49193 -8.59874 -0 -82.0004 -0 -0.0167637 -3.43281 -0.153024 -0.042847 -6.86557 -0.307888 -0.042847 -6.86557 -0.307889 1.07468e-006 17.9984 1.12512e-006 -0.0179292 9.20904 -0.418982 -15.282 16.1196 5.44054 -68.2774 -7.77632 -47.2352 -13.4876 36.595 17.0177 -46.7303 -7.08255 14.0079 2.37452e-006 -1.84187e-006 -1.52026e-006 -2.50599e-006 -1.75592e-006 -1.74324e-006 2.44025e-006 -4.29759e-008 1.1149e-007 -3.18055e-015 -2.68359e-015 -2.18663e-015 2.37452e-006 -1.84187e-006 -1.52026e-006 -2.50599e-006 -1.75592e-006 -1.74324e-006 2.44025e-006 -4.29759e-008 1.1149e-007 2.37452e-006 -1.84187e-006 -1.52026e-006 -2.50599e-006 -1.75592e-006 -1.74324e-006 2.44025e-006 -4.29759e-008 1.1149e-007 -3.18055e-015 -2.68359e-015 -2.18663e-015 2.37452e-006 -1.84187e-006 -1.52026e-006 -2.50599e-006 -1.75592e-006 -1.74324e-006 2.44025e-006 -4.29759e-008 1.1149e-007 2.37452e-006 -1.84187e-006 -1.52026e-006 -2.50599e-006 -1.75592e-006 -1.74324e-006 2.44025e-006 -4.29759e-008 1.1149e-007 15.2347 16.0887 -5.5013 68.4305 -7.60202 47.9876 11.8727 36.7494 -17.099 46.7422 -6.4809 -14.4197 2.95938e-006 -3.38532e-006 2.31618e-007 3.18055e-015 4.07509e-015 -2.98177e-015 2.28212e-006 -1.11482e-007 1.01007e-007 3.18055e-015 -2.48481e-016 -1.98785e-016 2.95938e-006 -3.38532e-006 2.31618e-007 1.0871e-031 4.82053e-015 -1.2921e-015 2.28212e-006 -1.11482e-007 1.01007e-007 2.95938e-006 -3.38532e-006 2.31618e-007 1.0871e-031 4.82053e-015 -1.2921e-015 2.28212e-006 -1.11482e-007 1.01007e-007 3.18055e-015 -2.48481e-016 -1.98785e-016 2.95938e-006 -3.38532e-006 2.31618e-007 1.0871e-031 4.82053e-015 -1.2921e-015 2.28212e-006 -1.11482e-007 1.01007e-007 2.95938e-006 -3.38532e-006 2.31618e-007 1.0871e-031 4.82053e-015 -1.2921e-015 2.28212e-006 -1.11482e-007 1.01007e-007 17.7477 -17.4887 50.277 2.00348 44.7192 0.801635 4.77114 20.836 -0.535705 -17.4303 -17.7523 -49.4756 -2.00713 44.7344 -0.811226 -4.14974 20.889 -0.316167 
